<svg width="24" height="24" viewBox="0 0 24 24" fill="none" xmlns="http://www.w3.org/2000/svg">
<path fill-rule="evenodd" clip-rule="evenodd" d="M5.70711 18.4346C5.31658 18.0441 5.31658 17.411 5.70711 17.0204L17.0208 5.70672C17.4113 5.3162 18.0445 5.3162 18.435 5.70672C18.8256 6.09725 18.8256 6.73041 18.435 7.12094L7.12132 18.4346C6.7308 18.8252 6.09763 18.8252 5.70711 18.4346Z" fill="black"/>
<path fill-rule="evenodd" clip-rule="evenodd" d="M5.70696 5.70711C6.09748 5.31658 6.73064 5.31658 7.12117 5.70711L18.4349 17.0208C18.8254 17.4113 18.8254 18.0445 18.4349 18.435C18.0444 18.8256 17.4112 18.8256 17.0207 18.435L5.70696 7.12132C5.31643 6.7308 5.31643 6.09763 5.70696 5.70711Z" fill="black"/>
</svg>
